<svg width="665.9574951171875px" height="79.2024932861328px" xmlns="http://www.w3.org/2000/svg" viewBox="-82.97874755859374 35.3987533569336 665.9574951171875 79.2024932861328" style="background: rgba(0, 0, 0, 0);" preserveAspectRatio="xMidYMid"><defs><filter id="editing-hole" x="-100%" y="-100%" width="300%" height="300%"><feFlood flood-color="#000" result="black"></feFlood><feMorphology operator="dilate" radius="2" in="SourceGraphic" result="erode"></feMorphology><feGaussianBlur in="erode" stdDeviation="4" result="blur"></feGaussianBlur><feOffset in="blur" dx="2" dy="2" result="offset"></feOffset><feComposite operator="atop" in="offset" in2="black" result="merge"></feComposite><feComposite operator="in" in="merge" in2="SourceGraphic" result="inner-shadow"></feComposite></filter></defs><g filter="url(#editing-hole)"><g transform="translate(13.445006728172302, 88.03999996185303)"><path d="M24.91-22.45L27.77-22.45L25.06 0L20.70 0L14.45-19.45L8.20 0L3.84 0L1.14-22.45L4-22.45L6.34-3.55L6.50-3.55L12.70-22.45L16.20-22.45L22.41-3.55L22.56-3.55L24.91-22.45ZM31.75 0L31.75-22.47L44.22-22.47L44.22-20.06L34.69-20.06L34.69-13.86L41.44-13.86L41.44-11.45L34.69-11.45L34.69-2.41L44.58-2.41L44.58 0L31.75 0ZM49.63 0L49.63-22.47L52.56-22.47L52.56-2.41L61.77-2.41L61.77 0L49.63 0ZM80.20-3.05L80.94-0.64L80.94-0.64Q79.48-0.19 77.87 0.09L77.87 0.09L77.87 0.09Q76.25 0.38 74.31 0.38L74.31 0.38L74.31 0.38Q69.53 0.38 67.09-2.48L67.09-2.48L67.09-2.48Q64.66-5.34 64.66-10.91L64.66-10.91L64.66-10.91Q64.66-16.81 67.09-19.81L67.09-19.81L67.09-19.81Q69.53-22.81 74.31-22.81L74.31-22.81L74.31-22.81Q76.13-22.81 77.57-22.50L77.57-22.50L77.57-22.50Q79.02-22.19 80.36-21.69L80.36-21.69L79.55-19.38L79.55-19.38Q78.91-19.61 78.28-19.80L78.28-19.80L78.28-19.80Q77.66-19.98 77.02-20.11L77.02-20.11L77.02-20.11Q76.39-20.23 75.72-20.30L75.72-20.30L75.72-20.30Q75.05-20.36 74.31-20.36L74.31-20.36L74.31-20.36Q72.58-20.36 71.33-19.74L71.33-19.74L71.33-19.74Q70.08-19.13 69.27-17.95L69.27-17.95L69.27-17.95Q68.45-16.77 68.06-15.07L68.06-15.07L68.06-15.07Q67.67-13.38 67.67-11.22L67.67-11.22L67.67-11.22Q67.67-9 68.06-7.30L68.06-7.30L68.06-7.30Q68.45-5.59 69.27-4.43L69.27-4.43L69.27-4.43Q70.08-3.27 71.33-2.67L71.33-2.67L71.33-2.67Q72.58-2.08 74.31-2.08L74.31-2.08L74.31-2.08Q75.91-2.08 77.34-2.34L77.34-2.34L77.34-2.34Q78.78-2.61 80.20-3.05L80.20-3.05ZM103.66-11.23L103.66-11.23L103.66-11.23Q103.66-5.59 101.11-2.61L101.11-2.61L101.11-2.61Q98.56 0.38 93.80 0.38L93.80 0.38L93.80 0.38Q89.08 0.38 86.51-2.60L86.51-2.60L86.51-2.60Q83.94-5.58 83.94-11.23L83.94-11.23L83.94-11.23Q83.94-16.88 86.52-19.84L86.52-19.84L86.52-19.84Q89.09-22.81 93.80-22.81L93.80-22.81L93.80-22.81Q98.56-22.81 101.11-19.82L101.11-19.82L101.11-19.82Q103.66-16.83 103.66-11.23ZM100.64-11.23L100.64-11.23L100.64-11.23Q100.64-15.58 98.93-17.97L98.93-17.97L98.93-17.97Q97.22-20.36 93.78-20.36L93.78-20.36L93.78-20.36Q90.33-20.36 88.64-17.95L88.64-17.95L88.64-17.95Q86.95-15.53 86.95-11.23L86.95-11.23L86.95-11.23Q86.95-9.13 87.35-7.46L87.35-7.46L87.35-7.46Q87.75-5.80 88.57-4.59L88.57-4.59L88.57-4.59Q89.39-3.38 90.71-2.73L90.71-2.73L90.71-2.73Q92.03-2.08 93.78-2.08L93.78-2.08L93.78-2.08Q97.22-2.08 98.93-4.48L98.93-4.48L98.93-4.48Q100.64-6.88 100.64-11.23ZM120.17-3L126.42-22.45L130.78-22.45L133.48 0L130.63 0L128.28-18.91L128.13-18.91L121.92 0L118.42 0L112.22-18.91L112.06-18.91L109.72 0L106.86 0L109.56-22.45L113.92-22.45L120.17-3ZM137.81 0L137.81-22.47L150.28-22.47L150.28-20.06L140.75-20.06L140.75-13.86L147.50-13.86L147.50-11.45L140.75-11.45L140.75-2.41L150.64-2.41L150.64 0L137.81 0ZM162.95-20.06L162.95-22.47L179.78-22.47L179.78-20.06L172.88-20.06L172.88 0L169.94 0L169.94-20.06L162.95-20.06ZM202.47-11.23L202.47-11.23L202.47-11.23Q202.47-5.59 199.92-2.61L199.92-2.61L199.92-2.61Q197.38 0.38 192.61 0.38L192.61 0.38L192.61 0.38Q187.89 0.38 185.32-2.60L185.32-2.60L185.32-2.60Q182.75-5.58 182.75-11.23L182.75-11.23L182.75-11.23Q182.75-16.88 185.33-19.84L185.33-19.84L185.33-19.84Q187.91-22.81 192.61-22.81L192.61-22.81L192.61-22.81Q197.38-22.81 199.92-19.82L199.92-19.82L199.92-19.82Q202.47-16.83 202.47-11.23ZM199.45-11.23L199.45-11.23L199.45-11.23Q199.45-15.58 197.74-17.97L197.74-17.97L197.74-17.97Q196.03-20.36 192.59-20.36L192.59-20.36L192.59-20.36Q189.14-20.36 187.45-17.95L187.45-17.95L187.45-17.95Q185.77-15.53 185.77-11.23L185.77-11.23L185.77-11.23Q185.77-9.13 186.16-7.46L186.16-7.46L186.16-7.46Q186.56-5.80 187.38-4.59L187.38-4.59L187.38-4.59Q188.20-3.38 189.52-2.73L189.52-2.73L189.52-2.73Q190.84-2.08 192.59-2.08L192.59-2.08L192.59-2.08Q196.03-2.08 197.74-4.48L197.74-4.48L197.74-4.48Q199.45-6.88 199.45-11.23ZM224.73-3.58L231.34-22.47L234.42-22.47L226.03 0.03L223.42 0.03L215.02-22.47L218.09-22.47L224.73-3.58ZM239.38 0L239.38-22.47L242.31-22.47L242.31 0L239.38 0ZM266.61-22.47L266.61 0.16L263.17 0.16L251.22-18.63L251.22 0L248.28 0L248.28-22.47L251.72-22.47L263.67-3.69L263.67-22.47L266.61-22.47ZM270.64-20.06L270.64-22.47L287.47-22.47L287.47-20.06L280.56-20.06L280.56 0L277.63 0L277.63-20.06L270.64-20.06ZM309.80 0L306.81 0L303.86-7.64L294.97-7.64L292.02 0L289.03 0L297.94-22.47L300.89-22.47L309.80 0ZM299.41-19.19L295.89-10.05L302.94-10.05L299.41-19.19ZM329.75-11.55L329.75-1.20L329.75-1.20Q327.89-0.44 325.90-0.03L325.90-0.03L325.90-0.03Q323.91 0.38 322.03 0.38L322.03 0.38L322.03 0.38Q319.59 0.38 317.71-0.31L317.71-0.31L317.71-0.31Q315.83-1 314.55-2.41L314.55-2.41L314.55-2.41Q313.27-3.81 312.60-5.95L312.60-5.95L312.60-5.95Q311.94-8.08 311.94-10.97L311.94-10.97L311.94-10.97Q311.94-14.11 312.62-16.36L312.62-16.36L312.62-16.36Q313.30-18.61 314.59-20.04L314.59-20.04L314.59-20.04Q315.89-21.47 317.79-22.14L317.79-22.14L317.79-22.14Q319.69-22.81 322.13-22.81L322.13-22.81L322.13-22.81Q323.64-22.81 325.31-22.51L325.31-22.51L325.31-22.51Q326.98-22.20 328.75-21.64L328.75-21.64L327.92-19.30L327.92-19.30Q326.34-19.83 324.96-20.09L324.96-20.09L324.96-20.09Q323.58-20.36 322.17-20.36L322.17-20.36L322.17-20.36Q320.36-20.36 319-19.83L319-19.83L319-19.83Q317.64-19.30 316.74-18.19L316.74-18.19L316.74-18.19Q315.84-17.08 315.40-15.36L315.40-15.36L315.40-15.36Q314.95-13.64 314.95-11.27L314.95-11.27L314.95-11.27Q314.95-8.92 315.37-7.19L315.37-7.19L315.37-7.19Q315.78-5.45 316.64-4.32L316.64-4.32L316.64-4.32Q317.50-3.19 318.83-2.63L318.83-2.63L318.83-2.63Q320.16-2.08 321.97-2.08L321.97-2.08L321.97-2.08Q323.25-2.08 324.55-2.34L324.55-2.34L324.55-2.34Q325.84-2.61 326.92-2.97L326.92-2.97L326.92-9.19L323.16-9.19L323.16-11.55L329.75-11.55ZM334.81 0L334.81-22.47L347.28-22.47L347.28-20.06L337.75-20.06L337.75-13.86L344.50-13.86L344.50-11.45L337.75-11.45L337.75-2.41L347.64-2.41L347.64 0L334.81 0ZM360.50-0.95L361.44-3.27L361.44-3.27Q362.08-3.02 362.79-2.80L362.79-2.80L362.79-2.80Q363.50-2.58 364.24-2.42L364.24-2.42L364.24-2.42Q364.98-2.27 365.73-2.17L365.73-2.17L365.73-2.17Q366.48-2.08 367.20-2.08L367.20-2.08L367.20-2.08Q368.44-2.08 369.44-2.36L369.44-2.36L369.44-2.36Q370.44-2.64 371.16-3.18L371.16-3.18L371.16-3.18Q371.88-3.72 372.27-4.51L372.27-4.51L372.27-4.51Q372.66-5.30 372.66-6.31L372.66-6.31L372.66-6.31Q372.66-7.33 372.29-7.98L372.29-7.98L372.29-7.98Q371.92-8.63 371.23-9.06L371.23-9.06L371.23-9.06Q370.53-9.50 369.52-9.80L369.52-9.80L369.52-9.80Q368.50-10.11 367.20-10.44L367.20-10.44L367.20-10.44Q365.77-10.81 364.55-11.27L364.55-11.27L364.55-11.27Q363.34-11.73 362.46-12.47L362.46-12.47L362.46-12.47Q361.58-13.20 361.08-14.29L361.08-14.29L361.08-14.29Q360.58-15.38 360.58-17L360.58-17L360.58-17Q360.58-18.33 361.11-19.41L361.11-19.41L361.11-19.41Q361.64-20.48 362.61-21.24L362.61-21.24L362.61-21.24Q363.58-22 364.94-22.41L364.94-22.41L364.94-22.41Q366.30-22.81 367.94-22.81L367.94-22.81L367.94-22.81Q368.73-22.81 369.56-22.71L369.56-22.71L369.56-22.71Q370.39-22.61 371.20-22.44L371.20-22.44L371.20-22.44Q372.02-22.27 372.80-22.02L372.80-22.02L372.80-22.02Q373.58-21.77 374.27-21.47L374.27-21.47L373.33-19.16L373.33-19.16Q372.77-19.38 372.18-19.59L372.18-19.59L372.18-19.59Q371.59-19.81 370.94-19.98L370.94-19.98L370.94-19.98Q370.28-20.16 369.54-20.26L369.54-20.26L369.54-20.26Q368.80-20.36 367.94-20.36L367.94-20.36L367.94-20.36Q367.08-20.36 366.30-20.17L366.30-20.17L366.30-20.17Q365.52-19.98 364.91-19.59L364.91-19.59L364.91-19.59Q364.31-19.19 363.95-18.55L363.95-18.55L363.95-18.55Q363.59-17.91 363.59-17L363.59-17L363.59-17Q363.59-15.98 363.96-15.34L363.96-15.34L363.96-15.34Q364.33-14.69 365.02-14.25L365.02-14.25L365.02-14.25Q365.72-13.81 366.73-13.51L366.73-13.51L366.73-13.51Q367.75-13.20 369.05-12.88L369.05-12.88L369.05-12.88Q370.48-12.50 371.70-12.04L371.70-12.04L371.70-12.04Q372.91-11.58 373.79-10.84L373.79-10.84L373.79-10.84Q374.67-10.11 375.17-9.02L375.17-9.02L375.17-9.02Q375.67-7.92 375.67-6.31L375.67-6.31L375.67-6.31Q375.67-4.61 375.04-3.35L375.04-3.35L375.04-3.35Q374.41-2.09 373.27-1.27L373.27-1.27L373.27-1.27Q372.14-0.44 370.59-0.03L370.59-0.03L370.59-0.03Q369.03 0.38 367.20 0.38L367.20 0.38L367.20 0.38Q363.75 0.38 360.50-0.95L360.50-0.95ZM395.23-13.55L395.23-22.47L398.17-22.47L398.17 0L395.23 0L395.23-11.14L383.17-11.14L383.17 0L380.23 0L380.23-22.47L383.17-22.47L383.17-13.55L395.23-13.55ZM422.45-11.23L422.45-11.23L422.45-11.23Q422.45-5.59 419.91-2.61L419.91-2.61L419.91-2.61Q417.36 0.38 412.59 0.38L412.59 0.38L412.59 0.38Q407.88 0.38 405.30-2.60L405.30-2.60L405.30-2.60Q402.73-5.58 402.73-11.23L402.73-11.23L402.73-11.23Q402.73-16.88 405.31-19.84L405.31-19.84L405.31-19.84Q407.89-22.81 412.59-22.81L412.59-22.81L412.59-22.81Q417.36-22.81 419.91-19.82L419.91-19.82L419.91-19.82Q422.45-16.83 422.45-11.23ZM419.44-11.23L419.44-11.23L419.44-11.23Q419.44-15.58 417.73-17.97L417.73-17.97L417.73-17.97Q416.02-20.36 412.58-20.36L412.58-20.36L412.58-20.36Q409.13-20.36 407.44-17.95L407.44-17.95L407.44-17.95Q405.75-15.53 405.75-11.23L405.75-11.23L405.75-11.23Q405.75-9.13 406.15-7.46L406.15-7.46L406.15-7.46Q406.55-5.80 407.37-4.59L407.37-4.59L407.37-4.59Q408.19-3.38 409.51-2.73L409.51-2.73L409.51-2.73Q410.83-2.08 412.58-2.08L412.58-2.08L412.58-2.08Q416.02-2.08 417.73-4.48L417.73-4.48L417.73-4.48Q419.44-6.88 419.44-11.23ZM427.06-22.47L434.09-22.47L434.09-22.47Q435.64-22.47 436.98-22.13L436.98-22.13L436.98-22.13Q438.33-21.80 439.32-21.04L439.32-21.04L439.32-21.04Q440.31-20.28 440.88-19.06L440.88-19.06L440.88-19.06Q441.45-17.84 441.45-16.09L441.45-16.09L441.45-16.09Q441.45-14.14 440.80-12.91L440.80-12.91L440.80-12.91Q440.14-11.67 439.02-10.95L439.02-10.95L439.02-10.95Q437.91-10.23 436.43-9.97L436.43-9.97L436.43-9.97Q434.95-9.70 433.31-9.70L433.31-9.70L433.31-9.70Q432.42-9.70 431.57-9.77L431.57-9.77L431.57-9.77Q430.72-9.83 429.97-9.91L429.97-9.91L429.97 0L427.06 0L427.06-22.47ZM429.97-20.13L429.97-12.25L429.97-12.25Q430.72-12.16 431.54-12.10L431.54-12.10L431.54-12.10Q432.36-12.05 433.19-12.05L433.19-12.05L433.19-12.05Q434.38-12.05 435.37-12.20L435.37-12.20L435.37-12.20Q436.36-12.34 437.06-12.78L437.06-12.78L437.06-12.78Q437.77-13.22 438.16-14.02L438.16-14.02L438.16-14.02Q438.55-14.81 438.55-16.09L438.55-16.09L438.55-16.09Q438.55-17.27 438.22-18.04L438.22-18.04L438.22-18.04Q437.89-18.81 437.30-19.28L437.30-19.28L437.30-19.28Q436.72-19.75 435.90-19.94L435.90-19.94L435.90-19.94Q435.08-20.13 434.09-20.13L434.09-20.13L429.97-20.13ZM457.52-13.86L457.52-13.86L457.52-13.86Q457.95-13.86 458.34-13.70L458.34-13.70L458.34-13.70Q458.72-13.53 459-13.25L459-13.25L459-13.25Q459.28-12.97 459.45-12.59L459.45-12.59L459.45-12.59Q459.61-12.20 459.61-11.77L459.61-11.77L459.61-11.77Q459.61-11.34 459.45-10.96L459.45-10.96L459.45-10.96Q459.28-10.58 459-10.30L459-10.30L459-10.30Q458.72-10 458.34-9.84L458.34-9.84L458.34-9.84Q457.95-9.67 457.52-9.67L457.52-9.67L457.52-9.67Q457.08-9.67 456.70-9.84L456.70-9.84L456.70-9.84Q456.31-10 456.03-10.30L456.03-10.30L456.03-10.30Q455.75-10.58 455.59-10.96L455.59-10.96L455.59-10.96Q455.42-11.34 455.42-11.77L455.42-11.77L455.42-11.77Q455.42-12.20 455.59-12.59L455.59-12.59L455.59-12.59Q455.75-12.97 456.03-13.25L456.03-13.25L456.03-13.25Q456.31-13.53 456.70-13.70L456.70-13.70L456.70-13.70Q457.08-13.86 457.52-13.86ZM457.52-3.88L457.52-3.88L457.52-3.88Q457.95-3.88 458.34-3.71L458.34-3.71L458.34-3.71Q458.72-3.55 459-3.27L459-3.27L459-3.27Q459.28-2.98 459.45-2.60L459.45-2.60L459.45-2.60Q459.61-2.22 459.61-1.78L459.61-1.78L459.61-1.78Q459.61-1.36 459.45-0.98L459.45-0.98L459.45-0.98Q459.28-0.59 459-0.31L459-0.31L459-0.31Q458.72-0.02 458.34 0.15L458.34 0.15L458.34 0.15Q457.95 0.31 457.52 0.31L457.52 0.31L457.52 0.31Q457.08 0.31 456.70 0.15L456.70 0.15L456.70 0.15Q456.31-0.02 456.03-0.31L456.03-0.31L456.03-0.31Q455.75-0.59 455.59-0.98L455.59-0.98L455.59-0.98Q455.42-1.36 455.42-1.78L455.42-1.78L455.42-1.78Q455.42-2.22 455.59-2.60L455.59-2.60L455.59-2.60Q455.75-2.98 456.03-3.27L456.03-3.27L456.03-3.27Q456.31-3.55 456.70-3.71L456.70-3.71L456.70-3.71Q457.08-3.88 457.52-3.88ZM466.08 3.27L465.27 2.42L465.27 2.42Q466.25 1.02 466.96-0.27L466.96-0.27L466.96-0.27Q467.67-1.55 468.14-2.90L468.14-2.90L468.14-2.90Q468.61-4.25 468.83-5.76L468.83-5.76L468.83-5.76Q469.05-7.27 469.05-9.13L469.05-9.13L469.05-9.13Q469.05-10.98 468.83-12.49L468.83-12.49L468.83-12.49Q468.61-14 468.14-15.35L468.14-15.35L468.14-15.35Q467.67-16.70 466.96-17.98L466.96-17.98L466.96-17.98Q466.25-19.27 465.27-20.67L465.27-20.67L466.08-21.52L466.08-21.52Q467.41-20.50 468.50-19.19L468.50-19.19L468.50-19.19Q469.59-17.88 470.36-16.30L470.36-16.30L470.36-16.30Q471.13-14.73 471.55-12.93L471.55-12.93L471.55-12.93Q471.97-11.13 471.97-9.13L471.97-9.13L471.97-9.13Q471.97-7.13 471.55-5.32L471.55-5.32L471.55-5.32Q471.13-3.52 470.36-1.95L470.36-1.95L470.36-1.95Q469.59-0.38 468.50 0.94L468.50 0.94L468.50 0.94Q467.41 2.25 466.08 3.27L466.08 3.27Z" fill="#ccc"></path></g></g><style>text {
  font-size: 64px;
  font-family: Arial Black;
  dominant-baseline: central;
  text-anchor: middle;
}</style></svg>